HIERARCHY
ROOT root
{
	OFFSET	0	13.1	24.9
	CHANNELS 6  Xposition Yposition Zposition Xrotation Yrotation Zrotation
	JOINT spine_1
	{
		OFFSET	0	9.99999	0
		CHANNELS 3  Xrotation Yrotation Zrotation
		JOINT spine_2
		{
			OFFSET	0	112	-10
			CHANNELS 3  Xrotation Yrotation Zrotation
			JOINT spine_3
			{
				OFFSET	0	206.5	19.3
				CHANNELS 3  Xrotation Yrotation Zrotation
				JOINT spine_4
				{
					OFFSET	0	110.4	14.6
					CHANNELS 3  Xrotation Yrotation Zrotation
					JOINT neck_1
					{
						OFFSET	0	71.8	-50.3
						CHANNELS 3  Xrotation Yrotation Zrotation
						JOINT neck_2
						{
							OFFSET	0	86.2	-25.8
							CHANNELS 3  Xrotation Yrotation Zrotation
							JOINT head_ee
							{
								OFFSET	0	179.8	-8.7
								CHANNELS 3  Xrotation Yrotation Zrotation
								End Site
								{
									OFFSET	1	0	0
								}
							}
						}
					}
					JOINT left_clavicle
					{
						OFFSET	-43.2	22.4	-70.8
						CHANNELS 3  Xrotation Yrotation Zrotation
						JOINT left_shoulder
						{
							OFFSET	-93.9	-5.79999	48.7
							CHANNELS 3  Xrotation Yrotation Zrotation
							JOINT left_elbow
							{
								OFFSET	-291.4	-30.8	15.2
								CHANNELS 3  Xrotation Yrotation Zrotation
								JOINT left_lowarm_twist
								{
									OFFSET	-110.7	-3.89999	13.6
									CHANNELS 3  Xrotation Yrotation Zrotation
									JOINT left_hand
									{
										OFFSET	-110.7	-3.89999	13.6
										CHANNELS 3  Xrotation Yrotation Zrotation
										JOINT left_ee
										{
											OFFSET	-80.8	-5.10001	12.1
											CHANNELS 3  Xrotation Yrotation Zrotation
											End Site
											{
												OFFSET	1	0	0
											}
										}
									}
								}
							}
						}
					}
					JOINT right_clavicle
					{
						OFFSET	43.2	22.4	-70.8
						CHANNELS 3  Xrotation Yrotation Zrotation
						JOINT right_shoulder
						{
							OFFSET	93.9	-5.79999	48.7
							CHANNELS 3  Xrotation Yrotation Zrotation
							JOINT right_elbow
							{
								OFFSET	291.4	-30.8	15.2
								CHANNELS 3  Xrotation Yrotation Zrotation
								JOINT right_lowarm_twist
								{
									OFFSET	110.7	-3.89999	13.6
									CHANNELS 3  Xrotation Yrotation Zrotation
									JOINT right_hand
									{
										OFFSET	110.7	-3.89999	13.6
										CHANNELS 3  Xrotation Yrotation Zrotation
										JOINT right_ee
										{
											OFFSET	80.8	-5.10001	12.1
											CHANNELS 3  Xrotation Yrotation Zrotation
											End Site
											{
												OFFSET	1	0	0
											}
										}
									}
								}
							}
						}
					}
				}
			}
		}
	}
	JOINT left_hip
	{
		OFFSET	-82.8	-127.5	0.300001
		CHANNELS 3  Xrotation Yrotation Zrotation
		JOINT left_knee
		{
			OFFSET	-28.2	-396.7	2.2
			CHANNELS 3  Xrotation Yrotation Zrotation
			JOINT left_ankle
			{
				OFFSET	-11.7	-411.3	35.4
				CHANNELS 3  Xrotation Yrotation Zrotation
				JOINT left_toes
				{
					OFFSET	0	-60	-88.6
					CHANNELS 3  Xrotation Yrotation Zrotation
					JOINT left_foot_ee
					{
						OFFSET	-22.5	-16.5	-42.2
						CHANNELS 3  Xrotation Yrotation Zrotation
						End Site
						{
							OFFSET	1	0	0
						}
					}
				}
			}
		}
	}
	JOINT right_hip
	{
		OFFSET	82.8	-127.5	0.300001
		CHANNELS 3  Xrotation Yrotation Zrotation
		JOINT right_knee
		{
			OFFSET	28.2	-396.7	2.2
			CHANNELS 3  Xrotation Yrotation Zrotation
			JOINT right_ankle
			{
				OFFSET	11.7	-411.3	35.4
				CHANNELS 3  Xrotation Yrotation Zrotation
				JOINT right_toes
				{
					OFFSET	0	-60	-88.6
					CHANNELS 3  Xrotation Yrotation Zrotation
					JOINT right_foot_ee
					{
						OFFSET	22.5	-16.5	-42.2
						CHANNELS 3  Xrotation Yrotation Zrotation
						End Site
						{
							OFFSET	1	0	0
						}
					}
				}
			}
		}
	}
}
MOTION
Frames: 13
Frame Time: 0.02
2790.13464079 710.431 -1744.20521094 7.77251372717 42.6877641917 -2.6860479116 -1.30739 0.0325118 -1.18781 -1.30661 0.108024 -1.18334 -1.30833 0.380182 -1.1258 -1.31005 0.197623 -1.17171 -12.6479 17.2489 12.1774 -12.6108 25.1752 16.6318 -0.0 0.0 -0.0 5.97752 23.7354 10.9713 5.99548 -24.5473 61.2957 1.92568 -43.6446 0.771148 -36.6924 -2.60646 3.81312 1.1147 -1.26445 6.9507 -0.0 0.0 -0.0 11.8623 11.9106 -23.956 -5.61352 -5.20885 -61.3135 0.238861 6.74831 -0.0140828 -40.7789 3.03438 -4.11604 3.67286 -19.1821 -31.5776 0.0 0.0 0.0 23.8643 37.6912 -23.9154 -40.6909 -0.511303 6.09471 27.7405 -19.0108 -4.02867 3.06507 -0.0 -0.0 -0.0 0.0 -0.0 19.0077 33.4374 -13.9593 -65.0331 2.76727 -9.05564 28.7393 -11.6014 3.76799 -0.041673 0.0 0.0 0.0 0.0 0.0 
2774.33936597 708.069 -1737.57697515 7.56114024302 42.7206601604 -2.42256906571 -1.21947 -0.0579731 -1.34269 -1.21846 0.0275751 -1.34365 -1.21839 0.337163 -1.30096 -1.22073 0.127488 -1.33788 -14.1207 16.814 13.2913 -14.0519 24.0977 17.8486 -0.0 0.0 -0.0 6.08939 24.6074 11.0663 9.05183 -25.7624 61.9701 2.00066 -44.738 0.823417 -36.2532 -2.5618 3.77879 1.06084 -0.624437 6.84912 -0.0 0.0 -0.0 12.3676 11.2801 -25.11 -7.21673 -6.79845 -58.7235 0.204495 5.78452 -0.0103315 -41.1543 3.07475 -4.14232 4.14915 -22.0785 -35.6766 0.0 0.0 0.0 21.2147 36.488 -21.5472 -40.5913 -0.504814 6.08085 30.8155 -15.0667 -4.25877 2.44755 -0.0 -0.0 -0.0 0.0 -0.0 20.3262 34.2136 -15.2317 -60.9601 2.30455 -8.63037 26.7943 -15.4825 3.57978 0.0784225 -0.0 -0.0 0.0 0.0 0.0 
2759.7318375 709.109 -1727.50032927 8.80986541894 44.1114712727 -3.59913324155 -1.64016 -0.0763366 -1.39689 -1.63907 0.0126968 -1.39891 -1.63847 0.345401 -1.35567 -1.64101 0.126986 -1.3932 -15.0191 16.8857 13.9743 -14.9488 24.1066 18.7028 -0.0 0.0 -0.0 6.17541 25.4523 11.1199 11.6775 -26.923 62.6501 2.1415 -46.685 0.924249 -36.6469 -2.60182 3.80958 0.969136 -0.250897 6.38419 -0.0 0.0 -0.0 12.7781 10.5322 -26.0492 -7.91585 -7.13786 -57.1538 0.22129 6.25597 -0.0120931 -42.577 3.2293 -4.23954 4.56529 -27.0426 -39.4774 0.0 0.0 0.0 17.5861 35.6607 -18.5581 -39.7381 -0.450191 5.9616 34.9647 -11.6412 -4.59963 1.78619 -0.0 -0.0 -0.0 0.0 -0.0 21.7338 34.7978 -17.3656 -60.4077 2.24417 -8.57022 25.7766 -20.3278 3.5206 -0.10796 0.0 0.0 0.0 0.0 0.0 
2741.3186191 714.241 -1711.85743917 11.4800980409 45.6274208123 -5.82954282282 -2.07214 -0.0355223 -1.3758 -2.07109 0.0520867 -1.37527 -2.0714 0.388026 -1.32043 -2.07379 0.17464 -1.36513 -16.0019 17.1093 13.4377 -16.0919 25.1553 18.5511 -0.0 0.0 -0.0 6.47046 26.0392 11.4693 13.5957 -27.6601 63.3573 2.25164 -48.1159 1.00533 -36.995 -2.6374 3.83659 0.837559 1.11031 6.05525 -0.0 0.0 -0.0 12.6748 9.33427 -25.802 -8.6158 -8.36936 -56.3675 0.347111 9.75672 -0.029626 -41.6191 3.12497 -4.1745 5.39069 -30.217 -46.1868 0.0 0.0 0.0 7.92559 35.7176 -12.8296 -29.8964 0.0480218 4.53603 37.302 -7.78718 -4.73856 -2.56718 0.0 0.0 -0.0 0.0 -0.0 24.2725 35.0616 -18.714 -57.4397 1.92996 -8.23737 22.3097 -21.5561 3.11362 0.0614085 -0.0 -0.0 0.0 0.0 0.0 
2714.13288559 719.128 -1701.38251796 13.4481771385 46.3784120542 -8.68144259306 -2.46591 -0.0842161 -1.14917 -2.46517 -0.0109255 -1.1522 -2.46417 0.279836 -1.11776 -2.4659 0.0998062 -1.14792 -15.697 17.1388 13.7252 -15.7314 24.954 18.7399 -0.0 0.0 -0.0 6.39434 25.4887 11.4146 14.6462 -27.9618 64.054 2.3351 -49.1495 1.06796 -37.2525 -2.66382 3.85643 0.606905 0.820767 4.39391 -0.0 0.0 -0.0 12.568 8.14161 -25.5377 -9.43293 -7.59227 -54.8274 0.303651 8.55448 -0.0227104 -43.8281 3.36717 -4.32184 5.53203 -32.2411 -47.2571 0.0 0.0 0.0 1.72445 37.8284 -8.51303 -27.747 0.123746 4.21488 39.5455 -5.23472 -4.89584 -1.25633 0.0 0.0 -0.0 0.0 -0.0 26.2711 33.9393 -19.9246 -55.1282 1.69751 -7.96727 24.9073 -26.7975 3.53495 -0.327145 0.0 0.0 0.0 0.0 0.0 
2691.04970304 718.528 -1692.42250045 13.8223706555 46.6078438575 -9.22486491726 -2.58233 -0.025431 -1.24427 -2.58147 0.0537902 -1.24336 -2.58177 0.3679 -1.18891 -2.5837 0.175531 -1.23209 -15.4328 17.5893 13.2183 -15.5458 26.0407 18.3854 -0.0 0.0 -0.0 6.68601 25.1702 11.8422 16.43 -28.1153 64.5781 2.50266 -51.1016 1.19658 -37.4246 -2.68153 3.86963 0.347701 1.68061 3.01889 -0.0 0.0 -0.0 12.1048 6.335 -24.4463 -9.83492 -7.55846 -54.2561 0.351917 9.88915 -0.0304458 -44.3067 3.42038 -4.35253 5.92251 -32.6593 -50.678 0.0 0.0 0.0 -5.30171 38.7769 -3.83669 -18.8347 0.307685 2.86096 39.5133 -3.27766 -4.86602 -3.27997 0.0 0.0 -0.0 0.0 -0.0 26.6537 32.5715 -19.7073 -51.4111 1.34728 -7.51421 24.5087 -27.7574 3.50659 -0.494129 0.0 0.0 0.0 0.0 0.0 
2671.94567341 717.871 -1685.51587811 14.6460241393 47.6718376384 -9.95870841731 -2.70377 0.0506772 -1.37057 -2.70273 0.137779 -1.36457 -2.70504 0.482719 -1.28376 -2.70724 0.273934 -1.34387 -14.8277 18.5913 12.6833 -15.0436 28.1118 18.1119 -0.0 0.0 -0.0 6.84639 24.3631 12.1411 17.7326 -28.2525 65.1053 2.63739 -52.5601 1.30251 -36.0684 -2.54308 3.76423 0.30517 2.26807 2.97852 -0.0 0.0 -0.0 11.8332 5.28057 -23.8068 -10.1168 -7.72438 -53.7931 0.318808 8.97469 -0.0250199 -44.4677 3.43834 -4.36275 6.40746 -33.0369 -55.4227 0.0 0.0 0.0 -10.5219 38.038 -0.348522 -12.7868 0.311835 1.93348 36.8788 -3.03258 -4.62626 -7.05693 0.0 0.0 -0.0 0.0 -0.0 27.6992 32.2038 -20.5786 -46.9867 0.969974 -6.94717 24.0612 -27.4899 3.44337 -2.17905 0.0 0.0 0.0 0.0 0.0 
2641.31837161 715.611 -1666.91463868 15.6364949451 49.5677665655 -11.5389583404 -3.00518 0.0686061 -1.37262 -3.00415 0.155803 -1.36548 -3.00685 0.507116 -1.27737 -3.009 0.299033 -1.34142 -14.8827 19.632 13.0337 -15.1772 29.9335 18.8298 -0.0 0.0 -0.0 6.38163 24.5501 11.4758 21.1398 -28.4405 66.9421 3.02041 -56.2317 1.61409 -37.9527 -2.73611 3.90977 0.536288 2.6654 4.67724 -0.0 0.0 -0.0 11.3655 3.25608 -22.6991 -11.0705 -8.23471 -53.6761 0.367366 10.3141 -0.0331556 -43.0455 3.28072 -4.27071 6.66278 -32.1045 -58.5395 0.0 0.0 0.0 -15.7975 34.2332 2.75531 -8.84897 0.261951 1.33144 38.261 -1.45161 -4.73549 -8.7933 0.0 0.0 -0.0 0.0 -0.0 29.0836 29.4456 -20.0214 -39.0038 0.404611 -5.85833 22.212 -25.8686 3.1723 -3.36222 0.0 0.0 0.0 0.0 0.0 
2619.16716278 714.122 -1659.84019555 17.1313468498 51.1850310248 -13.7891087262 -3.10663 -0.0832043 -1.27582 -3.10573 -0.00185851 -1.27853 -3.10459 0.334278 -1.23407 -3.10669 0.135202 -1.27136 -15.2831 19.1976 13.6017 -15.5067 28.8829 19.2899 -0.0 0.0 -0.0 6.31967 24.8601 11.3647 20.6984 -28.6975 66.8065 3.12499 -57.126 1.70148 -37.7534 -2.71547 3.89469 0.44502 3.19516 4.28714 -0.0 0.0 -0.0 11.0568 2.22672 -21.9856 -11.7943 -8.40015 -54.1928 0.403306 11.2984 -0.0398942 -44.954 3.49275 -4.39333 6.5989 -33.1874 -57.5016 0.0 0.0 0.0 -18.9342 34.9766 4.88018 -9.26903 0.269243 1.39548 39.7379 0.0363716 -4.85308 -7.3237 0.0 0.0 -0.0 0.0 -0.0 29.716 28.8356 -20.7062 -31.2628 0.00636872 -4.73866 18.0737 -26.4637 2.63489 -2.07356 0.0 0.0 0.0 0.0 0.0 
2619.14077334 714.122 -1661.55338189 17.0672284722 51.016855579 -13.7067212968 -3.10663 -0.0832043 -1.27582 -3.10573 -0.00185851 -1.27853 -3.10459 0.334278 -1.23407 -3.10669 0.135202 -1.27136 -15.2831 19.1976 13.6017 -15.5067 28.8829 19.2899 -0.0 0.0 -0.0 6.31967 24.8601 11.3647 20.6984 -28.6975 66.8065 3.12499 -57.126 1.70148 -37.7534 -2.71547 3.89469 0.44502 3.19516 4.28714 -0.0 0.0 -0.0 11.0568 2.22672 -21.9856 -11.7943 -8.40015 -54.1928 0.403306 11.2984 -0.0398942 -44.954 3.49275 -4.39333 6.5989 -33.1874 -57.5016 0.0 0.0 0.0 -18.9342 34.9766 4.88018 -9.26903 0.269243 1.39548 39.7379 0.0363716 -4.85308 -7.3237 0.0 0.0 -0.0 0.0 -0.0 29.716 28.8356 -20.7062 -31.2628 0.00636872 -4.73866 18.0737 -26.4637 2.63489 -2.07356 0.0 0.0 0.0 0.0 0.0 
2604.24832919 711.032 -1652.08008389 17.7895691694 52.9843289808 -14.7695347966 -3.1864 0.0117128 -1.27788 -3.1855 0.0929972 -1.27455 -3.18658 0.426495 -1.20468 -3.18853 0.230902 -1.2569 -14.9472 19.5292 13.1929 -15.2187 29.6603 18.9517 -0.0 0.0 -0.0 5.87322 24.4506 10.7781 21.5218 -29.8987 68.2007 3.33442 -58.7952 1.87903 -38.0315 -2.74429 3.91573 0.784898 3.33223 6.60059 -0.0 0.0 -0.0 11.0174 1.79109 -21.8792 -12.1348 -8.69032 -54.755 0.345661 9.71674 -0.0293808 -45.3572 3.53806 -4.41833 6.66232 -33.4702 -58.1547 0.0 0.0 0.0 -20.0152 31.8638 5.34216 -8.52744 0.256053 1.28245 38.2887 0.0368587 -4.7254 -8.22539 0.0 0.0 -0.0 0.0 -0.0 30.0742 28.7857 -20.5856 -24.2851 -0.220215 -3.69242 14.6554 -22.445 2.1183 -2.7313 0.0 0.0 0.0 0.0 0.0 
2577.84048755 707.785 -1633.93808837 18.6466024602 55.6698208505 -16.2223786149 -3.31762 -0.217732 -1.21401 -3.31681 -0.140046 -1.2254 -3.31262 0.191376 -1.21844 -3.31469 -0.0034403 -1.23337 -16.4418 19.4701 13.1196 -16.8992 30.0392 19.3404 -0.0 0.0 -0.0 5.15578 23.7282 9.82016 22.9906 -29.1306 70.1812 3.63229 -60.9207 2.13667 -38.7834 -2.82272 3.97192 1.22849 4.38455 9.97696 -0.0 0.0 -0.0 10.8834 0.810125 -21.5416 -10.5116 -6.65618 -55.6416 0.20558 5.815 -0.0104412 -46.051 3.61644 -4.4606 6.80233 -33.6623 -59.7829 0.0 0.0 0.0 -20.8737 26.8849 5.24767 -11.4816 0.299887 1.73357 38.6536 0.511897 -4.75466 -7.07705 0.0 0.0 -0.0 0.0 -0.0 30.2202 30.3102 -18.7044 -12.1532 -0.306603 -1.8364 10.2609 -18.17 1.48101 -9.61814 0.0 0.0 0.0 0.0 0.0 
2562.20129101 702.26 -1632.87378413 19.8176716152 57.0667784047 -17.4444043595 -3.53629 -0.320103 -1.19635 -3.53553 -0.243334 -1.21429 -3.52905 0.0935014 -1.23489 -3.53117 -0.102685 -1.23416 -17.6 20.0408 12.9352 -18.3298 31.5769 19.8295 -0.0 0.0 -0.0 4.27195 23.8395 8.58959 23.5157 -29.5065 71.0237 4.01117 -63.2672 2.47155 -38.7632 -2.8206 3.97042 1.37012 4.98725 11.1594 -0.0 0.0 -0.0 10.5675 -0.598308 -20.7966 -11.1128 -5.35918 -56.078 0.233286 6.59219 -0.0134353 -47.182 3.74528 -4.52746 6.92057 -33.865 -61.2238 0.0 0.0 0.0 -21.5626 25.1326 5.139 -12.226 0.30726 1.84756 38.2159 1.51547 -4.70956 -6.99938 0.0 0.0 -0.0 0.0 -0.0 31.1054 30.9295 -18.8869 -6.76514 -0.218844 -1.01458 7.93394 -16.1219 1.147 -12.9889 0.0 0.0 0.0 0.0 0.0 
